<?xml version="1.0" encoding="utf-8"?>
<!-- Generator: Adobe Illustrator 23.0.4, SVG Export Plug-In . SVG Version: 6.00 Build 0)  -->
<svg version="1.1" id="Logo" xmlns="http://www.w3.org/2000/svg" xmlns:xlink="http://www.w3.org/1999/xlink" x="0px" y="0px"
	 viewBox="0 0 180 33.8" style="enable-background:new 0 0 180 33.8;" xml:space="preserve">
<style type="text/css">
	.st0{fill:#6B4C4C;}
	.st1{fill:#C63527;}
</style>
<path id="Path_1" class="st0" d="M142.3,24.2c-2,0-4.6-1.1-7.3-1.1c-1.1,0-2.2,0.3-3.1,0.9c1.5-3.1,4.2-3.7,7.9-4.6
	c4.7-1.2,7-2.7,7-6.7c0-4.2-3.5-7.1-9.1-7.1c-5,0-8.4,3.1-8.4,6.5c-0.1,1.9,1.3,3.6,3.2,3.7c0.1,0,0.2,0,0.3,0
	c1.5,0.1,2.8-1.1,2.9-2.6c0-0.1,0-0.2,0-0.3c0.1-1.3-0.9-2.3-2.2-2.4c-0.1,0-0.2,0-0.3,0c-0.4,0-0.8,0.1-1.2,0.2
	c0.8-1.8,2.6-2.9,4.5-2.7c2.9,0,4.9,1.7,4.9,4.1c0,1.7-0.9,3.3-2.4,4.1c-1.4,0.7-3.2,1.4-5.1,2.5c-3.5,2-5.1,4.6-5.1,8.3
	c0,0.3,0,0.6,0,1h2.1c0.2-1.7,0.8-2.4,2-2.4c1.3,0,2.5,0.8,3.9,1.5c1.5,0.8,3.2,1.3,5,1.4c3.4,0,5.6-2.8,5.6-7.9v-0.5h-2
	C145.1,23,144.4,24.2,142.3,24.2z"/>
<path id="Path_2" class="st0" d="M163.3,16.3c3.6-0.7,5.4-2.4,5.4-5.1c0-3.1-3.1-5.5-8.5-5.5s-8.7,2.6-8.7,5.6
	c-0.1,1.6,1.2,2.9,2.7,2.9c0.1,0,0.2,0,0.2,0c1.4,0.1,2.7-0.9,2.8-2.3c0-0.1,0-0.1,0-0.2c0.1-1.2-0.9-2.3-2.1-2.4c0,0-0.1,0-0.1,0
	c1.2-0.9,2.6-1.4,4-1.3c2.7,0,4.4,1.5,4.4,3.7c0,2.4-1.7,3.5-5.3,3.5h-0.4v2.6h0.7c3.6,0,5.3,1.4,5.3,4.2c0,2.6-1.9,4.2-5.2,4.2
	c-1.8,0.1-3.5-0.5-4.8-1.7h0.3c1.4,0.1,2.6-0.9,2.7-2.3c0-0.1,0-0.2,0-0.3c0.1-1.4-1.1-2.7-2.5-2.7c-0.1,0-0.2,0-0.3,0
	c-1.8,0-3.3,1.4-3.3,3.1c0,0.1,0,0.2,0,0.3c0,3.3,3.3,6,8.7,6c6.3,0,9.9-2.8,9.9-6.7C169.3,18.9,167.3,16.9,163.3,16.3z"/>
<path id="Path_3" class="st1" d="M118.1,33.8h8.5v-2.4h-3.8v-29h3.8V0h-8.5V33.8z"/>
<path id="Path_4" class="st1" d="M171.5,0v2.4h3.8v29h-3.8v2.4h8.5V0H171.5z"/>
<path id="Path_5" class="st1" d="M46.5,22.4c0,3-0.3,4.3-1.6,4.3c-0.9,0-1.1-0.7-1.1-2.1v-8.4c0-2-0.1-3.3-1.8-4.5
	c-1.5-0.9-3.2-1.4-4.9-1.3c-4.1,0-6.9,2.1-6.9,4.6c0,1.2,0.9,2.2,2.1,2.2c0,0,0.1,0,0.1,0c1,0.1,1.9-0.7,1.9-1.7
	c0.1-1-0.7-1.9-1.7-1.9c1.1-1,2.5-1.6,4-1.5c2.5,0,4.1,1.3,4.1,3.2c0,1.8-0.8,2.3-2.9,2.9L35.2,19c-4,1.1-5.9,2.4-5.9,5.1
	s2.1,4.6,5.3,4.6c2.4,0,4.7-1.1,6.3-2.8c0.2,1.7,1.7,2.9,3.4,2.8c2.7,0,3.8-1.9,3.8-6v-0.3L46.5,22.4L46.5,22.4z M40.8,20.9
	c0,3.7-2,5.7-5.2,5.7c-1.4,0.2-2.6-0.8-2.8-2.2c0-0.1,0-0.2,0-0.4c0-1.6,1.1-2.6,3.4-3.3l1.4-0.5c1.1-0.4,2.2-0.8,3.2-1.3L40.8,20.9
	L40.8,20.9z"/>
<path id="Path_6" class="st1" d="M91.1,10.7c-2.2,0-3.9,1.4-5.2,4v-3.5h-6.4V13h1c1.9,0,2.3,0.4,2.3,2.1v9.3c0,1.6-0.4,2-2.3,2h-1.4
	c-1.9,0-2.3-0.4-2.3-2V11.3H70V13h1.4c1.9,0,2.3,0.4,2.3,2.1v5.8c0,3.6-2.2,5.8-5.4,5.8c-2.7,0-3.6-1.6-3.6-5.3V11.3H53.2V4.6h-1.7
	c-0.3,4.4-1.7,6.5-4.4,6.7V13h3v11.7c0,2.5,1.7,4,4.2,4c3.3,0,4.7-1.9,4.8-6.2h-1.7c-0.1,2.9-0.7,4.2-2.6,4.2c-1.2,0-1.7-0.6-1.7-2
	V13l6.1,0c1.9,0,2.3,0.4,2.3,2.1v5.9c0,2.4,0.1,4.2,1,5.6c1.1,1.5,2.9,2.3,4.8,2.1c2.5,0.1,4.9-1.2,6.3-3.4v2.9H90v-1.7h-1.8
	c-1.9,0-2.3-0.4-2.3-2v-4c0-4.9,2.4-7.9,5-7.9c0.8,0,1.6,0.4,2,1h-0.2c-0.9,0-1.7,0.7-1.8,1.6c0,0.1,0,0.1,0,0.2c0,1,0.9,1.9,2,1.8
	c0,0,0,0,0,0c1.3,0,2.2-1.1,2.2-2.4c0-0.1,0-0.1,0-0.2c0-2.1-1.7-3.8-3.9-3.8C91.3,10.7,91.2,10.7,91.1,10.7z"/>
<path id="Path_7" class="st1" d="M112.5,19.9c0-6.1-2.9-9.4-8.3-9.4c-5.1,0-8.6,3.6-8.6,9.1c0,5.6,3.5,9.1,8.6,9.1
	c4.3,0,6.9-2.2,7.8-6.3h-2.1c-0.5,2.6-2.8,4.4-5.4,4.3c-3.4,0-5.3-2.3-5.3-6.5v-0.3L112.5,19.9L112.5,19.9z M104.2,12.3
	c3.2,0,4.7,1.9,4.8,5.7h-9.7C99.5,14.3,101.3,12.3,104.2,12.3L104.2,12.3z"/>
<path id="Path_8" class="st1" d="M28.3,19.9c0-6.1-2.9-9.4-8.3-9.4c-5.1,0-8.6,3.6-8.6,9.1c0,5.6,3.5,9.1,8.6,9.1
	c4.3,0,6.9-2.2,7.8-6.3h-2.1c-0.5,2.6-2.8,4.4-5.4,4.3c-3.4,0-5.3-2.3-5.3-6.5v-0.3L28.3,19.9L28.3,19.9z M19.9,12.3
	c3.2,0,4.7,1.9,4.8,5.7H15C15.3,14.3,17,12.3,19.9,12.3L19.9,12.3z"/>
<path id="Path_9" class="st1" d="M10.3,7.7c0,1,0.9,1.8,1.8,1.7c0,0,0,0,0,0c1.1,0,2-0.8,2-1.9c0-0.1,0-0.2,0-0.3
	c0-2.2-2-3.8-5.4-3.8c-3.7,0-5.4,2.1-5.4,6.4v1.4l-3.4,0v1.8l3.4,0v11.4c0,1.7-0.4,2-2.3,2H0v1.8l10.5,0v-1.8H8.8
	c-1.9,0-2.3-0.4-2.3-2V13.1h4v-1.8h-4V10c0-3.3,0.5-4.9,2.8-4.9c0.9,0,1.8,0.3,2.4,0.9C10.9,6.2,10.3,6.9,10.3,7.7z"/>
</svg>
